<?xml version="1.0" encoding="UTF-8"?>
<!DOCTYPE svg PUBLIC "-//W3C//DTD SVG 1.1//EN" "http://www.w3.org/Graphics/SVG/1.1/DTD/svg11.dtd">
<svg xmlns="http://www.w3.org/2000/svg" version="1.1" width="512px" height="512px" style="shape-rendering:geometricPrecision; text-rendering:geometricPrecision; image-rendering:optimizeQuality; fill-rule:evenodd; clip-rule:evenodd" xmlns:xlink="http://www.w3.org/1999/xlink">
<g><path style="opacity:0.993" fill="#01c4ff" d="M 233.5,-0.5 C 240.167,-0.5 246.833,-0.5 253.5,-0.5C 253.5,19.8333 253.5,40.1667 253.5,60.5C 240.519,62.0455 228.852,66.7122 218.5,74.5C 217.502,50.3391 217.169,26.0057 217.5,1.5C 223.021,1.21808 228.354,0.551416 233.5,-0.5 Z"/></g>
<g><path style="opacity:0.993" fill="#01beff" d="M 253.5,-0.5 C 261.5,-0.5 269.5,-0.5 277.5,-0.5C 287.257,0.594993 296.924,2.26166 306.5,4.5C 306.5,31.1667 306.5,57.8333 306.5,84.5C 292.774,68.1422 275.107,60.1422 253.5,60.5C 253.5,40.1667 253.5,19.8333 253.5,-0.5 Z"/></g>
<g><path style="opacity:0.994" fill="#05cbff" d="M 217.5,1.5 C 217.169,26.0057 217.502,50.3391 218.5,74.5C 201.649,89.5727 194.149,108.573 196,131.5C 189.527,126.514 182.694,122.18 175.5,118.5C 174.507,83.2396 174.174,47.9063 174.5,12.5C 188.374,7.45296 202.707,3.78629 217.5,1.5 Z"/></g>
<g><path style="opacity:0.996" fill="#02b8ff" d="M 306.5,4.5 C 326.278,8.09291 345.278,14.0929 363.5,22.5C 363.5,77.8333 363.5,133.167 363.5,188.5C 349.026,172.578 331.692,160.578 311.5,152.5C 323.42,128.788 321.753,106.122 306.5,84.5C 306.5,57.8333 306.5,31.1667 306.5,4.5 Z"/></g>
<g><path style="opacity:0.993" fill="#03d1ff" d="M 174.5,12.5 C 174.174,47.9063 174.507,83.2396 175.5,118.5C 163.882,114.176 151.882,111.509 139.5,110.5C 138.509,82.9073 138.176,55.2407 138.5,27.5C 149.787,20.9551 161.787,15.9551 174.5,12.5 Z"/></g>
<g><path style="opacity:0.995" fill="#01b1ff" d="M 363.5,22.5 C 412.378,45.712 450.378,80.712 477.5,127.5C 477.5,212.833 477.5,298.167 477.5,383.5C 450.378,430.288 412.378,465.288 363.5,488.5C 363.5,457.833 363.5,427.167 363.5,396.5C 363.5,390.5 363.5,384.5 363.5,378.5C 363.169,353.994 363.502,329.661 364.5,305.5C 372.006,308.895 378.84,307.895 385,302.5C 388.709,291.174 390.542,279.507 390.5,267.5C 429.387,266.443 445.221,246.776 438,208.5C 435.674,202.513 432.174,197.346 427.5,193C 419.133,188.767 411.967,190.267 406,197.5C 403.16,205.574 404.493,212.908 410,219.5C 412.313,228.039 409.479,233.872 401.5,237C 396.798,237.828 392.131,237.662 387.5,236.5C 383.19,218.546 375.19,202.546 363.5,188.5C 363.5,133.167 363.5,77.8333 363.5,22.5 Z"/></g>
<g><path style="opacity:0.994" fill="#06d7ff" d="M 138.5,27.5 C 138.176,55.2407 138.509,82.9073 139.5,110.5C 128.937,110.228 123.27,115.394 122.5,126C 125.462,133.88 128.629,141.714 132,149.5C 134.677,156.695 136.843,164.028 138.5,171.5C 132.428,178.069 126.928,185.069 122,192.5C 116.534,202.436 111.368,212.436 106.5,222.5C 105.501,164.336 105.168,106.002 105.5,47.5C 115.66,39.5804 126.66,32.9137 138.5,27.5 Z"/></g>
<g><path style="opacity:0.995" fill="#01ddff" d="M 105.5,47.5 C 105.168,106.002 105.501,164.336 106.5,222.5C 106.389,223.117 106.056,223.617 105.5,224C 96.4669,224.251 87.4669,224.751 78.5,225.5C 77.5011,174.336 77.1678,123.003 77.5,71.5C 85.9248,62.4061 95.2582,54.4061 105.5,47.5 Z"/></g>
<g><path style="opacity:1" fill="#fdfeff" d="M 253.5,60.5 C 275.107,60.1422 292.774,68.1422 306.5,84.5C 321.753,106.122 323.42,128.788 311.5,152.5C 331.692,160.578 349.026,172.578 363.5,188.5C 375.19,202.546 383.19,218.546 387.5,236.5C 392.131,237.662 396.798,237.828 401.5,237C 409.479,233.872 412.313,228.039 410,219.5C 404.493,212.908 403.16,205.574 406,197.5C 411.967,190.267 419.133,188.767 427.5,193C 432.174,197.346 435.674,202.513 438,208.5C 445.221,246.776 429.387,266.443 390.5,267.5C 390.542,279.507 388.709,291.174 385,302.5C 378.84,307.895 372.006,308.895 364.5,305.5C 362.107,303.264 360.273,300.597 359,297.5C 360.251,281.878 360.584,266.212 360,250.5C 354.489,218.836 336.989,196.836 307.5,184.5C 291.776,177.084 275.109,173.084 257.5,172.5C 244.294,171.195 230.961,171.195 217.5,172.5C 210.509,173.256 203.509,173.423 196.5,173C 191.448,170.403 187.614,166.57 185,161.5C 181.895,158.707 178.728,156.04 175.5,153.5C 171.776,150.302 167.609,147.635 163,145.5C 164.643,153.42 166.31,161.42 168,169.5C 169.127,175.755 168.46,181.755 166,187.5C 153.124,197.877 143.958,210.877 138.5,226.5C 134.972,235.209 129.638,242.709 122.5,249C 115.747,253.002 108.414,254.502 100.5,253.5C 100.5,262.833 100.5,272.167 100.5,281.5C 107.196,280.849 113.529,282.015 119.5,285C 121.359,286.558 122.859,288.391 124,290.5C 127.307,300.454 132.14,309.454 138.5,317.5C 144.648,327.147 152.648,334.98 162.5,341C 169.077,345.559 171.243,351.726 169,359.5C 165.209,368.744 161.709,378.077 158.5,387.5C 160.516,397.81 166.516,402.143 176.5,400.5C 179.989,399.523 182.823,397.523 185,394.5C 188.61,385.003 192.61,375.669 197,366.5C 200.054,362.64 204.054,360.64 209,360.5C 212.143,361.107 215.31,361.441 218.5,361.5C 230.114,363.671 241.781,364.005 253.5,362.5C 263.024,361.789 272.524,360.789 282,359.5C 288.733,359.032 293.733,361.698 297,367.5C 299.943,375.039 303.109,382.373 306.5,389.5C 310.837,401.335 318.504,404.168 329.5,398C 333.284,393.139 334.451,387.639 333,381.5C 328.269,371.471 324.436,361.138 321.5,350.5C 323.305,339.599 329.639,335.099 340.5,337C 343.548,337.606 346.048,339.106 348,341.5C 353.777,353.703 358.943,366.036 363.5,378.5C 363.5,384.5 363.5,390.5 363.5,396.5C 354.161,422.85 335.494,433.85 307.5,429.5C 290.257,422.57 279.257,409.903 274.5,391.5C 269.123,390.8 263.79,391.133 258.5,392.5C 244.459,391.851 230.792,392.518 217.5,394.5C 211.659,413.674 198.992,425.674 179.5,430.5C 163.355,432.483 150.021,427.483 139.5,415.5C 127.49,398.685 126.324,381.018 136,362.5C 136.667,361.167 136.667,359.833 136,358.5C 124.493,348.502 114.66,337.168 106.5,324.5C 105.038,320.243 103.038,316.243 100.5,312.5C 93.1588,311.728 85.8255,311.062 78.5,310.5C 74.8174,308.17 72.3174,304.837 71,300.5C 70.3333,278.833 70.3333,257.167 71,235.5C 72.3174,231.163 74.8174,227.83 78.5,225.5C 87.4669,224.751 96.4669,224.251 105.5,224C 106.056,223.617 106.389,223.117 106.5,222.5C 111.368,212.436 116.534,202.436 122,192.5C 126.928,185.069 132.428,178.069 138.5,171.5C 136.843,164.028 134.677,156.695 132,149.5C 128.629,141.714 125.462,133.88 122.5,126C 123.27,115.394 128.937,110.228 139.5,110.5C 151.882,111.509 163.882,114.176 175.5,118.5C 182.694,122.18 189.527,126.514 196,131.5C 194.149,108.573 201.649,89.5727 218.5,74.5C 228.852,66.7122 240.519,62.0455 253.5,60.5 Z"/></g>
<g><path style="opacity:0.994" fill="#00e4ff" d="M 77.5,71.5 C 77.1678,123.003 77.5011,174.336 78.5,225.5C 74.8174,227.83 72.3174,231.163 71,235.5C 70.3333,257.167 70.3333,278.833 71,300.5C 72.3174,304.837 74.8174,308.17 78.5,310.5C 77.5013,353.33 77.168,396.33 77.5,439.5C 64.6291,427.972 53.6291,414.972 44.5,400.5C 44.5,303.833 44.5,207.167 44.5,110.5C 53.6291,96.0277 64.6291,83.0277 77.5,71.5 Z"/></g>
<g><path style="opacity:1" fill="#12c4ff" d="M 264.5,91.5 C 260.833,91.5 257.167,91.5 253.5,91.5C 253.5,108.167 253.5,124.833 253.5,141.5C 246.137,141.831 238.803,141.497 231.5,140.5C 221.996,123.515 224.663,108.682 239.5,96C 247.312,90.7423 255.645,89.2423 264.5,91.5 Z"/></g>
<g><path style="opacity:1" fill="#0abfff" d="M 264.5,91.5 C 286.02,98.8711 293.52,113.538 287,135.5C 285.159,140.35 281.825,143.35 277,144.5C 269.204,143.091 261.371,142.091 253.5,141.5C 253.5,124.833 253.5,108.167 253.5,91.5C 257.167,91.5 260.833,91.5 264.5,91.5 Z"/></g>
<g><path style="opacity:0.989" fill="#00eaff" d="M 44.5,110.5 C 44.5,207.167 44.5,303.833 44.5,400.5C 32.3184,384.476 22.985,366.809 16.5,347.5C 16.5,286.167 16.5,224.833 16.5,163.5C 22.985,144.191 32.3184,126.524 44.5,110.5 Z"/></g>
<g><path style="opacity:0.975" fill="#00adff" d="M 477.5,127.5 C 496.663,160.322 507.996,195.656 511.5,233.5C 511.5,248.167 511.5,262.833 511.5,277.5C 507.996,315.344 496.663,350.678 477.5,383.5C 477.5,298.167 477.5,212.833 477.5,127.5 Z"/></g>
<g><path style="opacity:1" fill="#0dd1ff" d="M 175.5,153.5 C 174.173,180.402 174.173,207.402 175.5,234.5C 163.228,229.302 155.562,233.136 152.5,246C 154.967,258.733 162.3,262.9 174.5,258.5C 173.838,306.178 174.505,353.512 176.5,400.5C 166.516,402.143 160.516,397.81 158.5,387.5C 161.709,378.077 165.209,368.744 169,359.5C 171.243,351.726 169.077,345.559 162.5,341C 152.648,334.98 144.648,327.147 138.5,317.5C 138.5,287.167 138.5,256.833 138.5,226.5C 143.958,210.877 153.124,197.877 166,187.5C 168.46,181.755 169.127,175.755 168,169.5C 166.31,161.42 164.643,153.42 163,145.5C 167.609,147.635 171.776,150.302 175.5,153.5 Z"/></g>
<g><path style="opacity:1" fill="#03cbff" d="M 175.5,153.5 C 178.728,156.04 181.895,158.707 185,161.5C 187.614,166.57 191.448,170.403 196.5,173C 203.509,173.423 210.509,173.256 217.5,172.5C 217.171,235.571 217.504,298.571 218.5,361.5C 215.31,361.441 212.143,361.107 209,360.5C 204.054,360.64 200.054,362.64 197,366.5C 192.61,375.669 188.61,385.003 185,394.5C 182.823,397.523 179.989,399.523 176.5,400.5C 174.505,353.512 173.838,306.178 174.5,258.5C 183.356,250.847 183.689,242.847 175.5,234.5C 174.173,207.402 174.173,180.402 175.5,153.5 Z"/></g>
<g><path style="opacity:0.955" fill="#00eeff" d="M 16.5,163.5 C 16.5,224.833 16.5,286.167 16.5,347.5C 7.52481,324.954 1.85814,301.621 -0.5,277.5C -0.5,262.833 -0.5,248.167 -0.5,233.5C 1.85814,209.379 7.52481,186.046 16.5,163.5 Z"/></g>
<g><path style="opacity:1" fill="#03c4ff" d="M 257.5,172.5 C 256.167,172.5 254.833,172.5 253.5,172.5C 253.5,235.833 253.5,299.167 253.5,362.5C 241.781,364.005 230.114,363.671 218.5,361.5C 217.504,298.571 217.171,235.571 217.5,172.5C 230.961,171.195 244.294,171.195 257.5,172.5 Z"/></g>
<g><path style="opacity:1" fill="#02beff" d="M 257.5,172.5 C 275.109,173.084 291.776,177.084 307.5,184.5C 306.501,252.665 306.167,320.998 306.5,389.5C 303.109,382.373 299.943,375.039 297,367.5C 293.733,361.698 288.733,359.032 282,359.5C 272.524,360.789 263.024,361.789 253.5,362.5C 253.5,299.167 253.5,235.833 253.5,172.5C 254.833,172.5 256.167,172.5 257.5,172.5 Z"/></g>
<g><path style="opacity:1" fill="#05b9ff" d="M 307.5,184.5 C 336.989,196.836 354.489,218.836 360,250.5C 360.584,266.212 360.251,281.878 359,297.5C 360.273,300.597 362.107,303.264 364.5,305.5C 363.502,329.661 363.169,353.994 363.5,378.5C 358.943,366.036 353.777,353.703 348,341.5C 346.048,339.106 343.548,337.606 340.5,337C 329.639,335.099 323.305,339.599 321.5,350.5C 324.436,361.138 328.269,371.471 333,381.5C 334.451,387.639 333.284,393.139 329.5,398C 318.504,404.168 310.837,401.335 306.5,389.5C 306.167,320.998 306.501,252.665 307.5,184.5 Z"/></g>
<g><path style="opacity:1" fill="#0ed7ff" d="M 138.5,226.5 C 138.5,256.833 138.5,287.167 138.5,317.5C 132.14,309.454 127.307,300.454 124,290.5C 122.859,288.391 121.359,286.558 119.5,285C 113.529,282.015 107.196,280.849 100.5,281.5C 100.5,272.167 100.5,262.833 100.5,253.5C 108.414,254.502 115.747,253.002 122.5,249C 129.638,242.709 134.972,235.209 138.5,226.5 Z"/></g>
<g><path style="opacity:1" fill="#fcfeff" d="M 175.5,234.5 C 183.689,242.847 183.356,250.847 174.5,258.5C 162.3,262.9 154.967,258.733 152.5,246C 155.562,233.136 163.228,229.302 175.5,234.5 Z"/></g>
<g><path style="opacity:0.994" fill="#02ddff" d="M 78.5,310.5 C 85.8255,311.062 93.1588,311.728 100.5,312.5C 103.038,316.243 105.038,320.243 106.5,324.5C 105.501,370.664 105.168,416.997 105.5,463.5C 95.2582,456.594 85.9248,448.594 77.5,439.5C 77.168,396.33 77.5013,353.33 78.5,310.5 Z"/></g>
<g><path style="opacity:0.993" fill="#05d7ff" d="M 106.5,324.5 C 114.66,337.168 124.493,348.502 136,358.5C 136.667,359.833 136.667,361.167 136,362.5C 126.324,381.018 127.49,398.685 139.5,415.5C 138.503,437.994 138.169,460.661 138.5,483.5C 126.66,478.086 115.66,471.42 105.5,463.5C 105.168,416.997 105.501,370.664 106.5,324.5 Z"/></g>
<g><path style="opacity:0.996" fill="#03beff" d="M 307.5,429.5 C 306.502,454.995 306.169,480.661 306.5,506.5C 296.924,508.738 287.257,510.405 277.5,511.5C 269.5,511.5 261.5,511.5 253.5,511.5C 253.5,472.167 253.5,432.833 253.5,393.5C 255.415,393.784 257.081,393.451 258.5,392.5C 263.79,391.133 269.123,390.8 274.5,391.5C 279.257,409.903 290.257,422.57 307.5,429.5 Z"/></g>
<g><path style="opacity:0.996" fill="#04c4ff" d="M 258.5,392.5 C 257.081,393.451 255.415,393.784 253.5,393.5C 253.5,432.833 253.5,472.167 253.5,511.5C 246.833,511.5 240.167,511.5 233.5,511.5C 228.354,510.449 223.021,509.782 217.5,509.5C 217.5,471.167 217.5,432.833 217.5,394.5C 230.792,392.518 244.459,391.851 258.5,392.5 Z"/></g>
<g><path style="opacity:0.993" fill="#03caff" d="M 217.5,394.5 C 217.5,432.833 217.5,471.167 217.5,509.5C 202.707,507.214 188.374,503.547 174.5,498.5C 174.5,476.167 174.5,453.833 174.5,431.5C 176.415,431.784 178.081,431.451 179.5,430.5C 198.992,425.674 211.659,413.674 217.5,394.5 Z"/></g>
<g><path style="opacity:0.992" fill="#03b8ff" d="M 363.5,396.5 C 363.5,427.167 363.5,457.833 363.5,488.5C 345.278,496.907 326.278,502.907 306.5,506.5C 306.169,480.661 306.502,454.995 307.5,429.5C 335.494,433.85 354.161,422.85 363.5,396.5 Z"/></g>
<g><path style="opacity:0.989" fill="#04d1ff" d="M 139.5,415.5 C 150.021,427.483 163.355,432.483 179.5,430.5C 178.081,431.451 176.415,431.784 174.5,431.5C 174.5,453.833 174.5,476.167 174.5,498.5C 161.787,495.045 149.787,490.045 138.5,483.5C 138.169,460.661 138.503,437.994 139.5,415.5 Z"/></g>
</svg>
